<?xml version="1.0" encoding="UTF-8"?>
<svg xmlns="http://www.w3.org/2000/svg" xmlns:xlink="http://www.w3.org/1999/xlink" width="100px" height="100px" viewBox="0 0 100 100" version="1.1">
<g id="surface1">
<path style=" stroke:none;fill-rule:nonzero;fill:rgb(100%,100%,100%);fill-opacity:0;" d="M 0.199219 26.585938 C 0.199219 17.726562 0.199219 8.964844 0.199219 0.203125 C 33.519531 0.203125 66.84375 0.203125 100.183594 0.203125 C 100.183594 33.511719 100.183594 66.828125 100.183594 100.171875 C 66.863281 100.171875 33.53125 100.171875 0.199219 100.171875 C 0.199219 75.683594 0.199219 51.183594 0.199219 26.585938 M 67.121094 3.382812 C 62.925781 1.941406 58.617188 0.890625 54.199219 0.644531 C 49.980469 0.410156 45.726562 0.410156 41.539062 1.207031 C 36.457031 2.179688 31.585938 3.761719 27 6.21875 C 21.703125 9.0625 17.039062 12.664062 13.042969 17.179688 C 9.890625 20.746094 7.335938 24.664062 5.253906 28.9375 C 2.605469 34.378906 1.097656 40.140625 0.65625 46.121094 C 0.34375 50.359375 0.382812 54.660156 1.207031 58.875 C 2.203125 63.953125 3.773438 68.824219 6.226562 73.414062 C 9.589844 79.703125 14.035156 85.039062 19.664062 89.425781 C 24.847656 93.46875 30.566406 96.449219 36.921875 98.078125 C 40.097656 98.890625 43.378906 99.453125 46.644531 99.738281 C 49.449219 99.984375 52.304688 99.753906 55.125 99.574219 C 57.089844 99.449219 59.066406 99.1875 60.984375 98.75 C 65.351562 97.757812 69.523438 96.230469 73.507812 94.121094 C 77.339844 92.089844 80.855469 89.628906 83.996094 86.679688 C 85.964844 84.828125 87.757812 82.757812 89.460938 80.648438 C 93.554688 75.570312 96.375 69.820312 98.09375 63.53125 C 99.199219 59.472656 99.90625 55.359375 99.800781 51.132812 C 99.75 49.164062 99.765625 47.1875 99.578125 45.230469 C 99.382812 43.207031 99.046875 41.191406 98.644531 39.199219 C 97.730469 34.695312 96.058594 30.472656 93.875 26.425781 C 91.847656 22.664062 89.402344 19.203125 86.4375 16.160156 C 84.347656 14.015625 82.050781 12.046875 79.695312 10.195312 C 75.949219 7.25 71.703125 5.15625 67.121094 3.382812 Z M 67.121094 3.382812 "/>
<path style=" stroke:none;fill-rule:nonzero;fill:rgb(1.176471%,42.745098%,67.058824%);fill-opacity:1;" d="M 67.1875 3.425781 C 71.703125 5.15625 75.949219 7.25 79.695312 10.195312 C 82.050781 12.046875 84.347656 14.015625 86.4375 16.160156 C 89.402344 19.203125 91.847656 22.664062 93.875 26.425781 C 96.058594 30.472656 97.730469 34.695312 98.644531 39.199219 C 99.046875 41.191406 99.382812 43.207031 99.578125 45.230469 C 99.765625 47.1875 99.75 49.164062 99.800781 51.132812 C 99.90625 55.359375 99.199219 59.472656 98.09375 63.53125 C 96.375 69.820312 93.554688 75.570312 89.460938 80.648438 C 87.757812 82.757812 85.964844 84.828125 83.996094 86.679688 C 80.855469 89.628906 77.339844 92.089844 73.507812 94.121094 C 69.523438 96.230469 65.351562 97.757812 60.984375 98.75 C 59.066406 99.1875 57.089844 99.449219 55.125 99.574219 C 52.304688 99.753906 49.449219 99.984375 46.644531 99.738281 C 43.378906 99.453125 40.097656 98.890625 36.921875 98.078125 C 30.566406 96.449219 24.847656 93.46875 19.664062 89.425781 C 14.035156 85.039062 9.589844 79.703125 6.226562 73.414062 C 3.773438 68.824219 2.203125 63.953125 1.207031 58.875 C 0.382812 54.660156 0.34375 50.359375 0.65625 46.121094 C 1.097656 40.140625 2.605469 34.378906 5.253906 28.9375 C 7.335938 24.664062 9.890625 20.746094 13.042969 17.179688 C 17.039062 12.664062 21.703125 9.0625 27 6.21875 C 31.585938 3.761719 36.457031 2.179688 41.539062 1.207031 C 45.726562 0.410156 49.980469 0.410156 54.199219 0.644531 C 58.617188 0.890625 62.925781 1.941406 67.1875 3.425781 M 32.722656 48.667969 C 32.679688 48.75 32.636719 48.828125 32.632812 49.050781 C 32.828125 49.609375 33.066406 50.160156 33.203125 50.730469 C 33.664062 52.699219 32.785156 54.175781 30.804688 54.558594 C 29.851562 54.738281 28.835938 54.710938 27.859375 54.636719 C 26.992188 54.574219 26.132812 54.316406 25.269531 54.144531 C 25.269531 54.703125 25.269531 55.210938 25.269531 55.777344 C 26.257812 55.777344 27.171875 55.777344 28.125 55.777344 C 28.125 56.976562 28.125 58.113281 28.125 59.34375 C 27.140625 59.34375 26.199219 59.34375 25.261719 59.34375 C 25.261719 60.308594 25.261719 61.183594 25.261719 62.101562 C 25.714844 62.101562 26.109375 62.101562 26.5 62.101562 C 26.898438 62.101562 27.296875 62.078125 27.691406 62.113281 C 27.917969 62.132812 28.140625 62.242188 28.367188 62.316406 C 28.546875 62.375 28.765625 62.542969 28.90625 62.492188 C 33.875 60.667969 37.269531 57.25 39.269531 52.246094 C 37.070312 51.066406 34.925781 49.914062 32.722656 48.667969 M 59.851562 4.679688 C 59.789062 4.71875 59.722656 4.757812 59.519531 4.773438 C 58.976562 4.535156 58.4375 4.28125 57.886719 4.066406 C 53.394531 2.324219 48.820312 0.949219 43.925781 1.417969 C 41.996094 1.601562 40.09375 2.066406 38.175781 2.402344 C 39.234375 2.847656 40.261719 3.03125 41.261719 3.320312 C 46.285156 4.769531 50.410156 7.703125 54.074219 11.3125 C 61.941406 19.0625 67.160156 28.386719 70.25 38.949219 C 71.832031 44.367188 72.449219 49.878906 71.753906 55.492188 C 70.808594 63.109375 68.097656 70.117188 64.171875 76.675781 C 61.632812 80.917969 58.652344 84.832031 55.042969 88.222656 C 49.742188 93.203125 43.847656 96.992188 36.269531 97.335938 C 40.632812 98.570312 44.980469 99.640625 49.585938 98.75 C 53.074219 98.070312 56.417969 97.015625 59.761719 95.648438 C 59.8125 95.703125 59.863281 95.757812 59.796875 95.894531 C 56.644531 97.4375 53.320312 98.460938 49.878906 99.125 C 65.695312 99.484375 83.519531 91.5 92.917969 74.078125 C 102.519531 56.28125 101.617188 38.496094 90.070312 21.867188 C 80.476562 8.054688 66.691406 1.511719 49.949219 1.183594 C 51.597656 1.683594 53.3125 2.042969 54.964844 2.597656 C 56.648438 3.160156 58.265625 3.914062 59.851562 4.679688 M 36.773438 72.59375 C 33.902344 78.484375 30.332031 83.882812 25.625 88.484375 C 25.207031 88.890625 24.980469 92.21875 25.335938 92.636719 C 25.355469 92.664062 25.386719 92.679688 25.414062 92.695312 C 27.273438 93.828125 29.039062 95.023438 31.445312 93.878906 C 34.226562 92.558594 36.738281 90.882812 38.9375 88.773438 C 48.644531 79.476562 54.597656 68.230469 56.28125 54.832031 C 56.535156 52.789062 56.511719 50.710938 56.613281 48.65625 C 51.628906 48.65625 46.859375 48.65625 42.03125 48.65625 C 42.378906 57.089844 40.386719 64.949219 36.773438 72.59375 M 50.097656 41.09375 C 51.90625 41.09375 53.710938 41.09375 55.558594 41.09375 C 55.519531 40.816406 55.511719 40.652344 55.472656 40.496094 C 52.636719 28.785156 46.628906 18.9375 37.773438 10.851562 C 35.824219 9.070312 33.457031 7.734375 31.238281 6.257812 C 30.175781 5.550781 29.050781 5.496094 27.921875 6.296875 C 27.257812 6.773438 26.453125 7.054688 25.769531 7.507812 C 25.5 7.6875 25.269531 8.074219 25.21875 8.398438 C 24.964844 9.984375 25.304688 11.316406 26.726562 12.332031 C 27.515625 12.898438 28.121094 13.738281 28.753906 14.5 C 32.800781 19.371094 35.871094 24.828125 38.074219 30.742188 C 39.320312 34.09375 40.253906 37.5625 41.367188 41.09375 C 44.09375 41.09375 46.996094 41.09375 50.097656 41.09375 M 1.191406 54.457031 C 1.402344 56.085938 1.515625 57.738281 1.84375 59.34375 C 4.160156 70.71875 9.621094 80.273438 18.492188 87.820312 C 19.503906 88.679688 20.589844 89.453125 21.761719 90.363281 C 21.761719 81.738281 21.761719 73.367188 21.761719 64.847656 C 20.703125 64.847656 19.703125 64.847656 18.574219 64.847656 C 19 63.460938 18.21875 63.191406 17.246094 62.832031 C 12.773438 61.183594 9.390625 58.210938 7.449219 53.851562 C 6.511719 51.753906 6.078125 49.429688 5.386719 47.101562 C 4.171875 47.101562 2.710938 47.101562 1.183594 47.101562 C 1.183594 49.546875 1.183594 51.910156 1.191406 54.457031 M 69.113281 41.492188 C 59.25 41.492188 49.382812 41.492188 39.4375 41.492188 C 39.4375 40.230469 39.4375 39.09375 39.4375 37.773438 C 35.113281 40.160156 30.933594 42.464844 26.613281 44.84375 C 30.980469 47.246094 35.148438 49.542969 39.472656 51.921875 C 39.472656 50.566406 39.472656 49.421875 39.472656 48.164062 C 50.164062 48.164062 60.777344 48.164062 71.597656 48.164062 C 71.238281 45.847656 70.90625 43.683594 70.566406 41.492188 C 70.027344 41.492188 69.664062 41.492188 69.113281 41.492188 M 37.660156 69.6875 C 38.402344 67.539062 39.203125 65.410156 39.875 63.238281 C 40.910156 59.894531 41.390625 56.4375 41.632812 52.953125 C 41.730469 51.546875 41.648438 50.132812 41.648438 48.699219 C 41.203125 48.699219 40.871094 48.699219 40.742188 48.699219 C 40.214844 50.355469 39.859375 51.921875 39.230469 53.375 C 37.425781 57.546875 34.386719 60.566406 30.238281 62.417969 C 29.152344 62.902344 27.875 63.097656 28.425781 64.910156 C 27.257812 64.910156 26.261719 64.910156 25.285156 64.910156 C 25.285156 72.746094 25.285156 80.4375 25.285156 88.351562 C 26.453125 87.070312 27.527344 85.996094 28.488281 84.828125 C 32.238281 80.265625 35.28125 75.261719 37.660156 69.6875 M 3.210938 35.875 C 2.652344 38.226562 2.097656 40.574219 1.523438 42.984375 C 3.191406 42.984375 4.625 42.984375 6.054688 42.984375 C 7.371094 37.386719 10.472656 33.214844 15.613281 30.746094 C 17.21875 29.972656 19.054688 29.6875 20.777344 29.148438 C 21.140625 29.03125 21.464844 28.785156 21.808594 28.601562 C 21.46875 28.460938 21.136719 28.226562 20.789062 28.195312 C 20.113281 28.128906 19.425781 28.175781 18.710938 28.175781 C 18.710938 27.195312 18.710938 26.351562 18.710938 25.367188 C 19.769531 25.367188 20.765625 25.367188 21.742188 25.367188 C 21.742188 20.230469 21.742188 15.238281 21.742188 10.042969 C 12.699219 16.699219 6.429688 25.089844 3.210938 35.875 M 25.585938 28.183594 C 25.464844 28.40625 25.296875 28.617188 25.253906 28.855469 C 25.238281 28.921875 25.574219 29.121094 25.765625 29.152344 C 30.980469 29.996094 35.035156 32.613281 37.921875 37.035156 C 38.195312 37.457031 38.382812 37.886719 39.066406 37.539062 C 39.691406 37.21875 39.703125 36.875 39.53125 36.273438 C 37.214844 28.28125 33.566406 20.976562 28.277344 14.53125 C 27.402344 13.464844 26.339844 12.546875 25.289062 11.480469 C 25.289062 16.25 25.289062 20.796875 25.289062 25.449219 C 26.355469 25.449219 27.328125 25.449219 28.300781 25.449219 C 28.300781 26.402344 28.300781 27.242188 28.300781 28.175781 C 27.40625 28.175781 26.585938 28.175781 25.585938 28.183594 M 24.800781 67.957031 C 24.800781 66.8125 24.800781 65.671875 24.800781 64.4375 C 25.933594 64.4375 26.941406 64.4375 27.933594 64.4375 C 27.933594 63.757812 27.933594 63.175781 27.933594 62.496094 C 26.886719 62.496094 25.882812 62.496094 24.855469 62.496094 C 24.855469 61.265625 24.855469 60.128906 24.855469 58.898438 C 25.847656 58.898438 26.789062 58.898438 27.707031 58.898438 C 27.707031 57.933594 27.707031 57.0625 27.707031 56.097656 C 26.699219 56.097656 25.761719 56.097656 24.765625 56.097656 C 24.765625 55.019531 24.765625 54.039062 24.765625 53.03125 C 23.902344 53.03125 23.097656 53.03125 22.199219 53.03125 C 22.199219 54.089844 22.199219 55.09375 22.199219 56.191406 C 21.164062 56.191406 20.226562 56.191406 19.320312 56.191406 C 19.320312 57.160156 19.320312 58.03125 19.320312 58.960938 C 20.308594 58.960938 21.226562 58.960938 22.171875 58.960938 C 22.171875 60.15625 22.171875 61.292969 22.171875 62.519531 C 21.117188 62.519531 20.109375 62.519531 19.113281 62.519531 C 19.113281 63.222656 19.113281 63.832031 19.113281 64.53125 C 20.183594 64.53125 21.1875 64.53125 22.222656 64.53125 C 22.222656 64.988281 22.222656 65.347656 22.222656 65.710938 C 22.222656 73.742188 22.222656 81.769531 22.230469 89.800781 C 22.234375 90.140625 22.246094 90.625 22.457031 90.792969 C 23.152344 91.347656 23.941406 91.792969 24.800781 92.347656 C 24.800781 84.148438 24.800781 76.152344 24.800781 67.957031 M 22.222656 17.957031 C 22.222656 20.554688 22.222656 23.152344 22.222656 25.839844 C 21.089844 25.839844 20.082031 25.839844 19.089844 25.839844 C 19.089844 26.519531 19.089844 27.105469 19.089844 27.78125 C 20.136719 27.78125 21.144531 27.78125 22.167969 27.78125 C 22.167969 29.015625 22.167969 30.152344 22.167969 31.382812 C 21.171875 31.382812 20.230469 31.382812 19.320312 31.382812 C 19.320312 32.351562 19.320312 33.222656 19.320312 34.152344 C 20.304688 34.152344 21.21875 34.152344 22.230469 34.152344 C 22.230469 35.214844 22.230469 36.222656 22.230469 37.242188 C 23.128906 37.242188 23.9375 37.242188 24.835938 37.242188 C 24.835938 36.179688 24.835938 35.175781 24.835938 34.078125 C 25.871094 34.078125 26.808594 34.078125 27.730469 34.078125 C 27.730469 33.132812 27.730469 32.285156 27.730469 31.34375 C 26.75 31.34375 25.808594 31.34375 24.859375 31.34375 C 24.859375 30.109375 24.859375 28.972656 24.859375 27.742188 C 25.921875 27.742188 26.929688 27.742188 27.902344 27.742188 C 27.902344 27.039062 27.902344 26.433594 27.902344 25.765625 C 26.847656 25.765625 25.867188 25.765625 24.800781 25.765625 C 24.800781 22.808594 24.800781 19.90625 24.800781 17.007812 C 24.800781 14.09375 24.800781 11.179688 24.800781 8.121094 C 24.121094 8.546875 23.636719 8.898438 23.113281 9.164062 C 22.414062 9.519531 22.179688 10.019531 22.203125 10.816406 C 22.261719 13.128906 22.222656 15.445312 22.222656 17.957031 M 18.847656 32.640625 C 18.847656 32.09375 18.847656 31.542969 18.847656 30.90625 C 19.917969 30.90625 20.859375 30.90625 21.765625 30.90625 C 21.765625 30.363281 21.765625 29.914062 21.765625 29.457031 C 13.34375 30.113281 7.53125 36.871094 6.574219 43.007812 C 8.351562 43.007812 10.125 43.007812 11.921875 43.007812 C 11.898438 42.8125 11.894531 42.648438 11.863281 42.488281 C 11.398438 40.121094 12.347656 38.605469 14.75 38.40625 C 16.195312 38.28125 17.761719 38.425781 19.128906 38.882812 C 20.578125 39.363281 21.558594 39.140625 22.441406 38.003906 C 22.496094 37.9375 22.523438 37.851562 22.582031 37.742188 C 22.316406 37.707031 22.097656 37.679688 21.800781 37.640625 C 21.800781 36.617188 21.800781 35.605469 21.800781 34.5 C 20.785156 34.5 19.84375 34.5 18.847656 34.5 C 18.847656 33.882812 18.847656 33.359375 18.847656 32.640625 M 10.449219 49.300781 C 10.449219 48.5625 10.449219 47.820312 10.449219 47.097656 C 9.125 47.097656 7.65625 47.097656 6.1875 47.097656 C 6.46875 55.5625 12.871094 61.472656 18.3125 62.710938 C 19.421875 61.589844 20.773438 62.445312 21.75 62.015625 C 21.75 61.089844 21.75 60.21875 21.75 59.292969 C 20.757812 59.292969 19.84375 59.292969 18.847656 59.292969 C 18.847656 58.488281 18.847656 57.742188 18.847656 56.945312 C 17.371094 57.292969 15.890625 57.363281 15.132812 55.988281 C 14.511719 54.859375 14.363281 53.46875 13.953125 52.011719 C 12.734375 51.570312 11.195312 51.09375 10.449219 49.300781 M 20.539062 42.046875 C 20.027344 42.285156 19.519531 42.523438 19.007812 42.761719 C 19.046875 42.847656 19.089844 42.933594 19.132812 43.019531 C 19.417969 43.046875 19.699219 43.070312 19.980469 43.097656 C 19.980469 44.421875 19.980469 45.691406 19.980469 47.023438 C 19.070312 47.023438 18.210938 46.988281 17.363281 47.042969 C 17.058594 47.0625 16.773438 47.296875 16.476562 47.433594 C 16.621094 47.730469 16.6875 48.113281 16.917969 48.304688 C 17.746094 49.011719 18.652344 49.625 19.484375 50.324219 C 20.800781 51.429688 22.230469 51.792969 23.867188 51.175781 C 24.445312 50.957031 25.238281 50.914062 25.5625 50.5 C 26.589844 49.195312 27.4375 47.75 28.398438 46.296875 C 27.449219 45.757812 26.695312 45.332031 25.84375 44.847656 C 26.386719 44.515625 26.789062 44.269531 27.320312 43.945312 C 26.109375 43.148438 25.046875 42.421875 23.949219 41.753906 C 23.671875 41.585938 23.261719 41.527344 22.929688 41.570312 C 22.179688 41.667969 21.441406 41.859375 20.539062 42.046875 M 30.828125 31.160156 C 29.070312 30.316406 27.253906 29.691406 25.269531 29.53125 C 25.269531 30.042969 25.269531 30.476562 25.269531 31.007812 C 26.277344 31.007812 27.21875 31.007812 28.128906 31.007812 C 28.128906 32.21875 28.128906 33.332031 28.128906 34.535156 C 27.140625 34.535156 26.199219 34.535156 25.238281 34.535156 C 25.238281 35.105469 25.238281 35.585938 25.238281 36.125 C 26.832031 35.589844 28.425781 34.949219 29.835938 36.300781 C 31.164062 37.578125 30.957031 39.308594 30.921875 41.082031 C 31.429688 41.132812 31.992188 41.367188 32.347656 41.1875 C 34.277344 40.207031 36.15625 39.125 38.050781 38.078125 C 36.550781 35.265625 34.113281 32.925781 30.828125 31.160156 M 3.671875 46.625 C 8.972656 46.625 14.277344 46.625 19.578125 46.625 C 19.578125 45.511719 19.578125 44.507812 19.578125 43.527344 C 13.496094 43.527344 7.476562 43.527344 1.433594 43.527344 C 1.328125 44.570312 1.230469 45.542969 1.125 46.625 C 1.972656 46.625 2.722656 46.625 3.671875 46.625 M 28.925781 36.578125 C 27.429688 36.023438 26.277344 36.335938 25.167969 37.574219 C 25.097656 37.652344 24.941406 37.6875 24.820312 37.691406 C 23.386719 37.734375 22.777344 38.9375 21.832031 39.808594 C 22.710938 40.167969 23.570312 40.488281 24.445312 40.558594 C 25.625 40.644531 26.820312 40.507812 28.003906 40.523438 C 28.675781 40.53125 29.347656 40.652344 30.085938 40.730469 C 30.167969 39.171875 30.289062 37.75 28.925781 36.578125 M 29.070312 53.96875 C 29.625 53.910156 30.195312 53.910156 30.730469 53.777344 C 32.070312 53.449219 32.730469 52.546875 32.496094 51.25 C 32.351562 50.445312 31.996094 49.675781 31.773438 49.003906 C 29.820312 49.835938 28.039062 50.582031 26.273438 51.359375 C 25.988281 51.484375 25.726562 51.710938 25.511719 51.941406 C 24.867188 52.652344 24.988281 53.175781 25.894531 53.398438 C 26.878906 53.640625 27.890625 53.777344 29.070312 53.96875 M 14.734375 43.054688 C 16.804688 42.496094 18.984375 42.132812 20.316406 39.925781 C 19.113281 39.648438 18.070312 39.265625 17.003906 39.199219 C 15.917969 39.132812 14.765625 39.222656 13.722656 39.523438 C 12.652344 39.835938 12.382812 40.886719 12.566406 42.152344 C 12.75 43.414062 13.648438 42.984375 14.355469 43.054688 C 14.421875 43.0625 14.488281 43.054688 14.734375 43.054688 M 20.734375 55.171875 C 20.816406 55.117188 20.890625 55.046875 20.984375 55.011719 C 22.070312 54.597656 21.976562 53.632812 21.777344 52.851562 C 21.546875 51.960938 20.726562 52.574219 20.167969 52.539062 C 19.773438 52.515625 19.378906 52.566406 18.980469 52.570312 C 17.710938 52.574219 16.441406 52.570312 15.042969 52.570312 C 15.109375 53.144531 15.117188 53.835938 15.273438 54.496094 C 15.628906 56.011719 16.777344 56.691406 18.257812 56.242188 C 19.066406 55.992188 19.824219 55.589844 20.734375 55.171875 M 14.566406 47.128906 C 13.78125 47.09375 12.996094 47 12.21875 47.050781 C 11.914062 47.074219 11.507812 47.351562 11.359375 47.625 C 10.90625 48.472656 11.027344 49.355469 11.785156 49.941406 C 12.539062 50.527344 13.433594 50.929688 14.332031 51.453125 C 14.617188 50.460938 14.773438 49.683594 15.0625 48.957031 C 15.34375 48.257812 15.332031 47.699219 14.566406 47.128906 M 16.753906 49.226562 C 16.511719 49.035156 16.269531 48.84375 15.925781 48.574219 C 15.664062 49.640625 15.441406 50.546875 15.179688 51.617188 C 16.902344 51.695312 18.429688 51.761719 20.214844 51.84375 C 18.941406 50.886719 17.902344 50.105469 16.753906 49.226562 M 28.550781 41.359375 C 27.394531 41.359375 26.234375 41.359375 24.957031 41.359375 C 25.738281 41.910156 26.433594 42.382812 27.109375 42.882812 C 28.410156 43.847656 29.640625 43.300781 29.855469 41.574219 C 29.480469 41.511719 29.101562 41.453125 28.550781 41.359375 M 30.585938 48.554688 C 30.773438 48.398438 30.960938 48.246094 31.308594 47.960938 C 30.472656 47.464844 29.765625 47.042969 29.058594 46.617188 C 28.320312 47.859375 27.648438 48.984375 26.980469 50.113281 C 27.03125 50.175781 27.082031 50.234375 27.136719 50.296875 C 28.246094 49.738281 29.351562 49.179688 30.585938 48.554688 M 39.871094 38.707031 C 39.871094 39.296875 39.824219 39.894531 39.894531 40.480469 C 39.921875 40.710938 40.214844 40.910156 40.386719 41.121094 C 40.484375 41.054688 40.582031 40.984375 40.679688 40.917969 C 40.464844 39.984375 40.246094 39.050781 40.03125 38.121094 C 39.976562 38.132812 39.921875 38.140625 39.871094 38.152344 C 39.871094 38.28125 39.871094 38.414062 39.871094 38.707031 Z M 39.871094 38.707031 "/>
<path style=" stroke:none;fill-rule:nonzero;fill:rgb(92.941176%,85.098039%,22.745098%);fill-opacity:1;" d="M 59.660156 95.597656 C 56.417969 97.015625 53.074219 98.070312 49.585938 98.75 C 44.980469 99.640625 40.632812 98.570312 36.269531 97.335938 C 43.847656 96.992188 49.742188 93.203125 55.042969 88.222656 C 58.652344 84.832031 61.632812 80.917969 64.171875 76.675781 C 68.097656 70.117188 70.808594 63.109375 71.753906 55.492188 C 72.449219 49.878906 71.832031 44.367188 70.25 38.949219 C 67.160156 28.386719 61.941406 19.0625 54.074219 11.3125 C 50.410156 7.703125 46.285156 4.769531 41.261719 3.320312 C 40.261719 3.03125 39.234375 2.847656 38.175781 2.402344 C 40.09375 2.066406 41.996094 1.601562 43.925781 1.417969 C 48.820312 0.949219 53.394531 2.324219 57.886719 4.066406 C 58.4375 4.28125 58.976562 4.535156 59.632812 4.839844 C 64.101562 7.007812 67.984375 9.78125 71.363281 13.230469 C 80.351562 22.398438 85.160156 33.472656 86.117188 46.222656 C 86.976562 57.617188 84.441406 68.246094 78.542969 78.050781 C 76.105469 82.09375 73.066406 85.648438 69.578125 88.90625 C 66.550781 91.628906 63.199219 93.75 59.660156 95.597656 Z M 59.660156 95.597656 "/>
<path style=" stroke:none;fill-rule:nonzero;fill:rgb(90.588235%,28.627451%,31.372549%);fill-opacity:1;" d="M 59.914062 4.585938 C 58.265625 3.914062 56.648438 3.160156 54.964844 2.597656 C 53.3125 2.042969 51.597656 1.683594 49.949219 1.183594 C 66.691406 1.511719 80.476562 8.054688 90.070312 21.867188 C 101.617188 38.496094 102.519531 56.28125 92.917969 74.078125 C 83.519531 91.5 65.695312 99.484375 49.878906 99.125 C 53.320312 98.460938 56.644531 97.4375 59.925781 95.847656 C 63.636719 94.023438 66.964844 91.871094 69.9375 89.078125 C 80.375 79.410156 85.652344 67.359375 86.660156 53.367188 C 86.988281 48.820312 86.660156 44.273438 85.734375 39.777344 C 83.390625 28.363281 78.160156 18.589844 69.398438 10.816406 C 66.546875 8.285156 63.417969 6.140625 59.914062 4.585938 Z M 59.914062 4.585938 "/>
<path style=" stroke:none;fill-rule:nonzero;fill:rgb(99.607843%,99.607843%,100%);fill-opacity:1;" d="M 36.8125 72.527344 C 40.386719 64.949219 42.378906 57.089844 42.03125 48.65625 C 46.859375 48.65625 51.628906 48.65625 56.613281 48.65625 C 56.511719 50.710938 56.535156 52.789062 56.28125 54.832031 C 54.597656 68.230469 48.644531 79.476562 38.9375 88.773438 C 36.738281 90.882812 34.226562 92.558594 31.445312 93.878906 C 29.039062 95.023438 27.273438 93.828125 25.414062 92.695312 C 25.386719 92.679688 25.355469 92.664062 25.335938 92.636719 C 24.980469 92.21875 25.207031 88.890625 25.625 88.484375 C 30.332031 83.882812 33.902344 78.484375 36.8125 72.527344 Z M 36.8125 72.527344 "/>
<path style=" stroke:none;fill-rule:nonzero;fill:rgb(99.607843%,99.607843%,100%);fill-opacity:1;" d="M 50 41.09375 C 46.996094 41.09375 44.09375 41.09375 41.367188 41.09375 C 40.253906 37.5625 39.320312 34.09375 38.074219 30.742188 C 35.871094 24.828125 32.800781 19.371094 28.753906 14.5 C 28.121094 13.738281 27.515625 12.898438 26.726562 12.332031 C 25.304688 11.316406 24.964844 9.984375 25.21875 8.398438 C 25.269531 8.074219 25.5 7.6875 25.769531 7.507812 C 26.453125 7.054688 27.257812 6.773438 27.921875 6.296875 C 29.050781 5.496094 30.175781 5.550781 31.238281 6.257812 C 33.457031 7.734375 35.824219 9.070312 37.773438 10.851562 C 46.628906 18.9375 52.636719 28.785156 55.472656 40.496094 C 55.511719 40.652344 55.519531 40.816406 55.558594 41.09375 C 53.710938 41.09375 51.90625 41.09375 50 41.09375 Z M 50 41.09375 "/>
<path style=" stroke:none;fill-rule:nonzero;fill:rgb(26.666667%,62.352941%,42.745098%);fill-opacity:1;" d="M 1.1875 54.363281 C 1.183594 51.910156 1.183594 49.546875 1.183594 47.101562 C 2.710938 47.101562 4.171875 47.101562 5.386719 47.101562 C 6.078125 49.429688 6.511719 51.753906 7.449219 53.851562 C 9.390625 58.210938 12.773438 61.183594 17.246094 62.832031 C 18.21875 63.191406 19 63.460938 18.574219 64.847656 C 19.703125 64.847656 20.703125 64.847656 21.761719 64.847656 C 21.761719 73.367188 21.761719 81.738281 21.761719 90.363281 C 20.589844 89.453125 19.503906 88.679688 18.492188 87.820312 C 9.621094 80.273438 4.160156 70.71875 1.84375 59.34375 C 1.515625 57.738281 1.402344 56.085938 1.1875 54.363281 Z M 1.1875 54.363281 "/>
<path style=" stroke:none;fill-rule:nonzero;fill:rgb(98.823529%,99.215686%,99.607843%);fill-opacity:1;" d="M 69.210938 41.492188 C 69.664062 41.492188 70.027344 41.492188 70.566406 41.492188 C 70.90625 43.683594 71.238281 45.847656 71.597656 48.164062 C 60.777344 48.164062 50.164062 48.164062 39.472656 48.164062 C 39.472656 49.421875 39.472656 50.566406 39.472656 51.921875 C 35.148438 49.542969 30.980469 47.246094 26.613281 44.84375 C 30.933594 42.464844 35.113281 40.160156 39.4375 37.773438 C 39.4375 39.09375 39.4375 40.230469 39.4375 41.492188 C 49.382812 41.492188 59.25 41.492188 69.210938 41.492188 Z M 69.210938 41.492188 "/>
<path style=" stroke:none;fill-rule:nonzero;fill:rgb(26.666667%,62.352941%,42.745098%);fill-opacity:1;" d="M 37.628906 69.757812 C 35.28125 75.261719 32.238281 80.265625 28.488281 84.828125 C 27.527344 85.996094 26.453125 87.070312 25.285156 88.351562 C 25.285156 80.4375 25.285156 72.746094 25.285156 64.910156 C 26.261719 64.910156 27.257812 64.910156 28.425781 64.910156 C 27.875 63.097656 29.152344 62.902344 30.238281 62.417969 C 34.386719 60.566406 37.425781 57.546875 39.230469 53.375 C 39.859375 51.921875 40.214844 50.355469 40.742188 48.699219 C 40.871094 48.699219 41.203125 48.699219 41.648438 48.699219 C 41.648438 50.132812 41.730469 51.546875 41.632812 52.953125 C 41.390625 56.4375 40.910156 59.894531 39.875 63.238281 C 39.203125 65.410156 38.402344 67.539062 37.628906 69.757812 Z M 37.628906 69.757812 "/>
<path style=" stroke:none;fill-rule:nonzero;fill:rgb(26.666667%,62.352941%,42.745098%);fill-opacity:1;" d="M 3.238281 35.800781 C 6.429688 25.089844 12.699219 16.699219 21.742188 10.042969 C 21.742188 15.238281 21.742188 20.230469 21.742188 25.367188 C 20.765625 25.367188 19.769531 25.367188 18.710938 25.367188 C 18.710938 26.351562 18.710938 27.195312 18.710938 28.175781 C 19.425781 28.175781 20.113281 28.128906 20.789062 28.195312 C 21.136719 28.226562 21.46875 28.460938 21.808594 28.601562 C 21.464844 28.785156 21.140625 29.03125 20.777344 29.148438 C 19.054688 29.6875 17.21875 29.972656 15.613281 30.746094 C 10.472656 33.214844 7.371094 37.386719 6.054688 42.984375 C 4.625 42.984375 3.191406 42.984375 1.523438 42.984375 C 2.097656 40.574219 2.652344 38.226562 3.238281 35.800781 Z M 3.238281 35.800781 "/>
<path style=" stroke:none;fill-rule:nonzero;fill:rgb(26.666667%,62.352941%,42.745098%);fill-opacity:1;" d="M 25.675781 28.179688 C 26.585938 28.175781 27.40625 28.175781 28.300781 28.175781 C 28.300781 27.242188 28.300781 26.402344 28.300781 25.449219 C 27.328125 25.449219 26.355469 25.449219 25.289062 25.449219 C 25.289062 20.796875 25.289062 16.25 25.289062 11.480469 C 26.339844 12.546875 27.402344 13.464844 28.277344 14.53125 C 33.566406 20.976562 37.214844 28.28125 39.53125 36.273438 C 39.703125 36.875 39.691406 37.21875 39.066406 37.539062 C 38.382812 37.886719 38.195312 37.457031 37.921875 37.035156 C 35.035156 32.613281 30.980469 29.996094 25.765625 29.152344 C 25.574219 29.121094 25.238281 28.921875 25.253906 28.855469 C 25.296875 28.617188 25.464844 28.40625 25.675781 28.179688 Z M 25.675781 28.179688 "/>
<path style=" stroke:none;fill-rule:nonzero;fill:rgb(100%,100%,100%);fill-opacity:1;" d="M 24.800781 68.054688 C 24.800781 76.152344 24.800781 84.148438 24.800781 92.347656 C 23.941406 91.792969 23.152344 91.347656 22.457031 90.792969 C 22.246094 90.625 22.234375 90.140625 22.230469 89.800781 C 22.222656 81.769531 22.222656 73.742188 22.222656 65.710938 C 22.222656 65.347656 22.222656 64.988281 22.222656 64.53125 C 21.1875 64.53125 20.183594 64.53125 19.113281 64.53125 C 19.113281 63.832031 19.113281 63.222656 19.113281 62.519531 C 20.109375 62.519531 21.117188 62.519531 22.171875 62.519531 C 22.171875 61.292969 22.171875 60.15625 22.171875 58.960938 C 21.226562 58.960938 20.308594 58.960938 19.320312 58.960938 C 19.320312 58.03125 19.320312 57.160156 19.320312 56.191406 C 20.226562 56.191406 21.164062 56.191406 22.199219 56.191406 C 22.199219 55.09375 22.199219 54.089844 22.199219 53.03125 C 23.097656 53.03125 23.902344 53.03125 24.765625 53.03125 C 24.765625 54.039062 24.765625 55.019531 24.765625 56.097656 C 25.761719 56.097656 26.699219 56.097656 27.707031 56.097656 C 27.707031 57.0625 27.707031 57.933594 27.707031 58.898438 C 26.789062 58.898438 25.847656 58.898438 24.855469 58.898438 C 24.855469 60.128906 24.855469 61.265625 24.855469 62.496094 C 25.882812 62.496094 26.886719 62.496094 27.933594 62.496094 C 27.933594 63.175781 27.933594 63.757812 27.933594 64.4375 C 26.941406 64.4375 25.933594 64.4375 24.800781 64.4375 C 24.800781 65.671875 24.800781 66.8125 24.800781 68.054688 Z M 24.800781 68.054688 "/>
<path style=" stroke:none;fill-rule:nonzero;fill:rgb(100%,100%,100%);fill-opacity:1;" d="M 22.222656 17.855469 C 22.222656 15.445312 22.261719 13.128906 22.203125 10.816406 C 22.179688 10.019531 22.414062 9.519531 23.113281 9.164062 C 23.636719 8.898438 24.121094 8.546875 24.800781 8.121094 C 24.800781 11.179688 24.800781 14.09375 24.800781 17.007812 C 24.800781 19.90625 24.800781 22.808594 24.800781 25.765625 C 25.867188 25.765625 26.847656 25.765625 27.902344 25.765625 C 27.902344 26.433594 27.902344 27.039062 27.902344 27.742188 C 26.929688 27.742188 25.921875 27.742188 24.859375 27.742188 C 24.859375 28.972656 24.859375 30.109375 24.859375 31.34375 C 25.808594 31.34375 26.75 31.34375 27.730469 31.34375 C 27.730469 32.285156 27.730469 33.132812 27.730469 34.078125 C 26.808594 34.078125 25.871094 34.078125 24.835938 34.078125 C 24.835938 35.175781 24.835938 36.179688 24.835938 37.242188 C 23.9375 37.242188 23.128906 37.242188 22.230469 37.242188 C 22.230469 36.222656 22.230469 35.214844 22.230469 34.152344 C 21.21875 34.152344 20.304688 34.152344 19.320312 34.152344 C 19.320312 33.222656 19.320312 32.351562 19.320312 31.382812 C 20.230469 31.382812 21.171875 31.382812 22.167969 31.382812 C 22.167969 30.152344 22.167969 29.015625 22.167969 27.78125 C 21.144531 27.78125 20.136719 27.78125 19.089844 27.78125 C 19.089844 27.105469 19.089844 26.519531 19.089844 25.839844 C 20.082031 25.839844 21.089844 25.839844 22.222656 25.839844 C 22.222656 23.152344 22.222656 20.554688 22.222656 17.855469 Z M 22.222656 17.855469 "/>
<path style=" stroke:none;fill-rule:nonzero;fill:rgb(99.215686%,99.607843%,99.607843%);fill-opacity:1;" d="M 18.847656 32.738281 C 18.847656 33.359375 18.847656 33.882812 18.847656 34.5 C 19.84375 34.5 20.785156 34.5 21.800781 34.5 C 21.800781 35.605469 21.800781 36.617188 21.800781 37.640625 C 22.097656 37.679688 22.316406 37.707031 22.582031 37.742188 C 22.523438 37.851562 22.496094 37.9375 22.441406 38.003906 C 21.558594 39.140625 20.578125 39.363281 19.128906 38.882812 C 17.761719 38.425781 16.195312 38.28125 14.75 38.40625 C 12.347656 38.605469 11.398438 40.121094 11.863281 42.488281 C 11.894531 42.648438 11.898438 42.8125 11.921875 43.007812 C 10.125 43.007812 8.351562 43.007812 6.574219 43.007812 C 7.53125 36.871094 13.34375 30.113281 21.765625 29.457031 C 21.765625 29.914062 21.765625 30.363281 21.765625 30.90625 C 20.859375 30.90625 19.917969 30.90625 18.847656 30.90625 C 18.847656 31.542969 18.847656 32.09375 18.847656 32.738281 Z M 18.847656 32.738281 "/>
<path style=" stroke:none;fill-rule:nonzero;fill:rgb(99.215686%,99.607843%,99.607843%);fill-opacity:1;" d="M 10.472656 49.375 C 11.195312 51.09375 12.734375 51.570312 13.953125 52.011719 C 14.363281 53.46875 14.511719 54.859375 15.132812 55.988281 C 15.890625 57.363281 17.371094 57.292969 18.847656 56.945312 C 18.847656 57.742188 18.847656 58.488281 18.847656 59.292969 C 19.84375 59.292969 20.757812 59.292969 21.75 59.292969 C 21.75 60.21875 21.75 61.089844 21.75 62.015625 C 20.773438 62.445312 19.421875 61.589844 18.3125 62.710938 C 12.871094 61.472656 6.46875 55.5625 6.1875 47.097656 C 7.65625 47.097656 9.125 47.097656 10.449219 47.097656 C 10.449219 47.820312 10.449219 48.5625 10.472656 49.375 Z M 10.472656 49.375 "/>
<path style=" stroke:none;fill-rule:nonzero;fill:rgb(99.215686%,99.607843%,99.607843%);fill-opacity:1;" d="M 32.78125 48.761719 C 34.925781 49.914062 37.070312 51.066406 39.269531 52.246094 C 37.269531 57.25 33.875 60.667969 28.90625 62.492188 C 28.765625 62.542969 28.546875 62.375 28.367188 62.316406 C 28.140625 62.242188 27.917969 62.132812 27.691406 62.113281 C 27.296875 62.078125 26.898438 62.101562 26.5 62.101562 C 26.109375 62.101562 25.714844 62.101562 25.261719 62.101562 C 25.261719 61.183594 25.261719 60.308594 25.261719 59.34375 C 26.199219 59.34375 27.140625 59.34375 28.125 59.34375 C 28.125 58.113281 28.125 56.976562 28.125 55.777344 C 27.171875 55.777344 26.257812 55.777344 25.269531 55.777344 C 25.269531 55.210938 25.269531 54.703125 25.269531 54.144531 C 26.132812 54.316406 26.992188 54.574219 27.859375 54.636719 C 28.835938 54.710938 29.851562 54.738281 30.804688 54.558594 C 32.785156 54.175781 33.664062 52.699219 33.203125 50.730469 C 33.066406 50.160156 32.828125 49.609375 32.664062 48.945312 C 32.722656 48.816406 32.753906 48.789062 32.78125 48.761719 Z M 32.78125 48.761719 "/>
<path style=" stroke:none;fill-rule:nonzero;fill:rgb(98.823529%,99.215686%,99.607843%);fill-opacity:1;" d="M 20.617188 42.03125 C 21.441406 41.859375 22.179688 41.667969 22.929688 41.570312 C 23.261719 41.527344 23.671875 41.585938 23.949219 41.753906 C 25.046875 42.421875 26.109375 43.148438 27.320312 43.945312 C 26.789062 44.269531 26.386719 44.515625 25.84375 44.847656 C 26.695312 45.332031 27.449219 45.757812 28.398438 46.296875 C 27.4375 47.75 26.589844 49.195312 25.5625 50.5 C 25.238281 50.914062 24.445312 50.957031 23.867188 51.175781 C 22.230469 51.792969 20.800781 51.429688 19.484375 50.324219 C 18.652344 49.625 17.746094 49.011719 16.917969 48.304688 C 16.6875 48.113281 16.621094 47.730469 16.476562 47.433594 C 16.773438 47.296875 17.058594 47.0625 17.363281 47.042969 C 18.210938 46.988281 19.070312 47.023438 19.980469 47.023438 C 19.980469 45.691406 19.980469 44.421875 19.980469 43.097656 C 19.699219 43.070312 19.417969 43.046875 19.132812 43.019531 C 19.089844 42.933594 19.046875 42.847656 19.007812 42.761719 C 19.519531 42.523438 20.027344 42.285156 20.617188 42.03125 Z M 20.617188 42.03125 "/>
<path style=" stroke:none;fill-rule:nonzero;fill:rgb(98.823529%,99.215686%,99.607843%);fill-opacity:1;" d="M 30.894531 31.195312 C 34.113281 32.925781 36.550781 35.265625 38.050781 38.078125 C 36.15625 39.125 34.277344 40.207031 32.347656 41.1875 C 31.992188 41.367188 31.429688 41.132812 30.921875 41.082031 C 30.957031 39.308594 31.164062 37.578125 29.835938 36.300781 C 28.425781 34.949219 26.832031 35.589844 25.238281 36.125 C 25.238281 35.585938 25.238281 35.105469 25.238281 34.535156 C 26.199219 34.535156 27.140625 34.535156 28.128906 34.535156 C 28.128906 33.332031 28.128906 32.21875 28.128906 31.007812 C 27.21875 31.007812 26.277344 31.007812 25.269531 31.007812 C 25.269531 30.476562 25.269531 30.042969 25.269531 29.53125 C 27.253906 29.691406 29.070312 30.316406 30.894531 31.195312 Z M 30.894531 31.195312 "/>
<path style=" stroke:none;fill-rule:nonzero;fill:rgb(100%,100%,100%);fill-opacity:1;" d="M 3.574219 46.625 C 2.722656 46.625 1.972656 46.625 1.125 46.625 C 1.230469 45.542969 1.328125 44.570312 1.433594 43.527344 C 7.476562 43.527344 13.496094 43.527344 19.578125 43.527344 C 19.578125 44.507812 19.578125 45.511719 19.578125 46.625 C 14.277344 46.625 8.972656 46.625 3.574219 46.625 Z M 3.574219 46.625 "/>
<path style=" stroke:none;fill-rule:nonzero;fill:rgb(10.588235%,43.921569%,62.352941%);fill-opacity:1;" d="M 59.882812 4.632812 C 63.417969 6.140625 66.546875 8.285156 69.398438 10.816406 C 78.160156 18.589844 83.390625 28.363281 85.734375 39.777344 C 86.660156 44.273438 86.988281 48.820312 86.660156 53.367188 C 85.652344 67.359375 80.375 79.410156 69.886719 89.054688 C 69.730469 89 69.683594 88.941406 69.640625 88.882812 C 73.066406 85.648438 76.105469 82.09375 78.542969 78.050781 C 84.441406 68.246094 86.976562 57.617188 86.117188 46.222656 C 85.160156 33.472656 80.351562 22.398438 71.363281 13.230469 C 67.984375 9.78125 64.101562 7.007812 59.703125 4.851562 C 59.722656 4.757812 59.789062 4.71875 59.882812 4.632812 Z M 59.882812 4.632812 "/>
<path style=" stroke:none;fill-rule:nonzero;fill:rgb(98.039216%,98.823529%,99.215686%);fill-opacity:1;" d="M 28.988281 36.625 C 30.289062 37.75 30.167969 39.171875 30.085938 40.730469 C 29.347656 40.652344 28.675781 40.53125 28.003906 40.523438 C 26.820312 40.507812 25.625 40.644531 24.445312 40.558594 C 23.570312 40.488281 22.710938 40.167969 21.832031 39.808594 C 22.777344 38.9375 23.386719 37.734375 24.820312 37.691406 C 24.941406 37.6875 25.097656 37.652344 25.167969 37.574219 C 26.277344 36.335938 27.429688 36.023438 28.988281 36.625 Z M 28.988281 36.625 "/>
<path style=" stroke:none;fill-rule:nonzero;fill:rgb(98.039216%,98.823529%,99.215686%);fill-opacity:1;" d="M 28.980469 53.964844 C 27.890625 53.777344 26.878906 53.640625 25.894531 53.398438 C 24.988281 53.175781 24.867188 52.652344 25.511719 51.941406 C 25.726562 51.710938 25.988281 51.484375 26.273438 51.359375 C 28.039062 50.582031 29.820312 49.835938 31.773438 49.003906 C 31.996094 49.675781 32.351562 50.445312 32.496094 51.25 C 32.730469 52.546875 32.070312 53.449219 30.730469 53.777344 C 30.195312 53.910156 29.625 53.910156 28.980469 53.964844 Z M 28.980469 53.964844 "/>
<path style=" stroke:none;fill-rule:nonzero;fill:rgb(98.039216%,98.823529%,99.215686%);fill-opacity:1;" d="M 14.644531 43.054688 C 14.488281 43.054688 14.421875 43.0625 14.355469 43.054688 C 13.648438 42.984375 12.75 43.414062 12.566406 42.152344 C 12.382812 40.886719 12.652344 39.835938 13.722656 39.523438 C 14.765625 39.222656 15.917969 39.132812 17.003906 39.199219 C 18.070312 39.265625 19.113281 39.648438 20.316406 39.925781 C 18.984375 42.132812 16.804688 42.496094 14.644531 43.054688 Z M 14.644531 43.054688 "/>
<path style=" stroke:none;fill-rule:nonzero;fill:rgb(98.431373%,99.215686%,99.607843%);fill-opacity:1;" d="M 20.671875 55.214844 C 19.824219 55.589844 19.066406 55.992188 18.257812 56.242188 C 16.777344 56.691406 15.628906 56.011719 15.273438 54.496094 C 15.117188 53.835938 15.109375 53.144531 15.042969 52.570312 C 16.441406 52.570312 17.710938 52.574219 18.980469 52.570312 C 19.378906 52.566406 19.773438 52.515625 20.167969 52.539062 C 20.726562 52.574219 21.546875 51.960938 21.777344 52.851562 C 21.976562 53.632812 22.070312 54.597656 20.984375 55.011719 C 20.890625 55.046875 20.816406 55.117188 20.671875 55.214844 Z M 20.671875 55.214844 "/>
<path style=" stroke:none;fill-rule:nonzero;fill:rgb(98.039216%,98.823529%,99.215686%);fill-opacity:1;" d="M 14.625 47.1875 C 15.332031 47.699219 15.34375 48.257812 15.0625 48.957031 C 14.773438 49.683594 14.617188 50.460938 14.332031 51.453125 C 13.433594 50.929688 12.539062 50.527344 11.785156 49.941406 C 11.027344 49.355469 10.90625 48.472656 11.359375 47.625 C 11.507812 47.351562 11.914062 47.074219 12.21875 47.050781 C 12.996094 47 13.78125 47.09375 14.625 47.1875 Z M 14.625 47.1875 "/>
<path style=" stroke:none;fill-rule:nonzero;fill:rgb(95.686275%,97.647059%,98.431373%);fill-opacity:1;" d="M 16.808594 49.273438 C 17.902344 50.105469 18.941406 50.886719 20.214844 51.84375 C 18.429688 51.761719 16.902344 51.695312 15.179688 51.617188 C 15.441406 50.546875 15.664062 49.640625 15.925781 48.574219 C 16.269531 48.84375 16.511719 49.035156 16.808594 49.273438 Z M 16.808594 49.273438 "/>
<path style=" stroke:none;fill-rule:nonzero;fill:rgb(95.686275%,97.647059%,98.431373%);fill-opacity:1;" d="M 28.636719 41.378906 C 29.101562 41.453125 29.480469 41.511719 29.855469 41.574219 C 29.640625 43.300781 28.410156 43.847656 27.109375 42.882812 C 26.433594 42.382812 25.738281 41.910156 24.957031 41.359375 C 26.234375 41.359375 27.394531 41.359375 28.636719 41.378906 Z M 28.636719 41.378906 "/>
<path style=" stroke:none;fill-rule:nonzero;fill:rgb(96.078431%,97.647059%,98.823529%);fill-opacity:1;" d="M 30.523438 48.589844 C 29.351562 49.179688 28.246094 49.738281 27.136719 50.296875 C 27.082031 50.234375 27.03125 50.175781 26.980469 50.113281 C 27.648438 48.984375 28.320312 47.859375 29.058594 46.617188 C 29.765625 47.042969 30.472656 47.464844 31.308594 47.960938 C 30.960938 48.246094 30.773438 48.398438 30.523438 48.589844 Z M 30.523438 48.589844 "/>
<path style=" stroke:none;fill-rule:nonzero;fill:rgb(12.156863%,44.313725%,61.568627%);fill-opacity:1;" d="M 69.578125 88.90625 C 69.683594 88.941406 69.730469 89 69.828125 89.082031 C 66.964844 91.871094 63.636719 94.023438 59.984375 95.808594 C 59.863281 95.757812 59.8125 95.703125 59.710938 95.625 C 63.199219 93.75 66.550781 91.628906 69.578125 88.90625 Z M 69.578125 88.90625 "/>
<path style=" stroke:none;fill-rule:nonzero;fill:rgb(25.098039%,61.176471%,44.313725%);fill-opacity:1;" d="M 39.871094 38.625 C 39.871094 38.414062 39.871094 38.28125 39.871094 38.152344 C 39.921875 38.140625 39.976562 38.132812 40.03125 38.121094 C 40.246094 39.050781 40.464844 39.984375 40.679688 40.917969 C 40.582031 40.984375 40.484375 41.054688 40.386719 41.121094 C 40.214844 40.910156 39.921875 40.710938 39.894531 40.480469 C 39.824219 39.894531 39.871094 39.296875 39.871094 38.625 Z M 39.871094 38.625 "/>
<path style=" stroke:none;fill-rule:nonzero;fill:rgb(99.215686%,99.607843%,99.607843%);fill-opacity:1;" d="M 32.640625 48.875 C 32.636719 48.828125 32.679688 48.75 32.753906 48.714844 C 32.753906 48.789062 32.722656 48.816406 32.640625 48.875 Z M 32.640625 48.875 "/>
</g>
</svg>
